<svg xmlns="http://www.w3.org/2000/svg" width="512" height="512" viewBox="0 0 512 512">
  <rect width="512" height="512" rx="96" fill="#846358"/>
  <g transform="translate(96, 96) scale(13.33)">
    <path d="M3 4h4a2 2 0 0 1 2 2v14a1 1 0 0 0-1-1H4a1 1 0 0 1-1-1V4z" fill="#fff" opacity="0.9"/>
    <path d="M9 6a2 2 0 0 1 2-2h4a2 2 0 0 1 2 2v14a1 1 0 0 0-1-1h-6a1 1 0 0 0-1 1V6z" fill="#fff" opacity="0.7"/>
    <path d="M15 4h6a1 1 0 0 1 1 1v12a1 1 0 0 1-1 1h-6V4z" fill="#fff" opacity="0.5"/>
  </g>
</svg>
